# xmcd
#
# Track frame offsets:
#	150
#	11073
#	21087
#	31714
#	46058
#	57567
#	70890
#	83691
#	94120
#	106708
#	115886
#	128224
#	138810
#	153753
#	167445
#	176606
#	188832
#	198704
#	211480
#	223048
#	233296
#	245658
#	258880
#	269744
#	279671
#	289348
#
# Disc length: 3975 seconds
#
# Revision: 1
# Processed by: cddbd v1.5.2PL0 Copyright (c) Steve Scherf et al.
# Submitted via: audiograbber 1.83.01
#
DISCID=6e0f851a
DTITLE=Mickey Gilley - Country Cowboys CD 5
DYEAR=1900
DGENRE=Country
TTITLE0=Lawdy Miss Clawdy
TTITLE1=Night After Night
TTITLE2=Forgive
TTITLE3=I'll Make It Up to You
TTITLE4=Without You
TTITLE5=The Heart Belongs to Me
TTITLE6=Still Care About You
TTITLE7=I Miss You So
TTITLE8=Just Out of Reach
TTITLE9=Susie Q
TTITLE10=Black Mountain Rag
TTITLE11=That's How It's Got to Be
TTITLE12=Rockey Top
TTITLE13=CC Rider
TTITLE14=My Babe
TTITLE15=Valley of Tears
TTITLE16=Caught in the Middle
TTITLE17=Turn Around
TTITLE18=It All Depends
TTITLE19=Slippin' and Sliding
TTITLE20=I Need Your Love
TTITLE21=Wild Side of Life
TTITLE22=Down the Line
TTITLE23=Lotta Lovin'
TTITLE24=No Greater Love
TTITLE25=Ain't Goin' Home
EXTD=
EXTT0=
EXTT1=
EXTT2=
EXTT3=
EXTT4=
EXTT5=
EXTT6=
EXTT7=
EXTT8=
EXTT9=
EXTT10=
EXTT11=
EXTT12=
EXTT13=
EXTT14=
EXTT15=
EXTT16=
EXTT17=
EXTT18=
EXTT19=
EXTT20=
EXTT21=
EXTT22=
EXTT23=
EXTT24=
EXTT25=
PLAYORDER=
